<?xml version="1.0" encoding="utf-8"?>
<!-- Generator: Adobe Illustrator 27.0.0, SVG Export Plug-In . SVG Version: 6.00 Build 0)  -->
<svg version="1.1" id="Capa_1" xmlns="http://www.w3.org/2000/svg" xmlns:xlink="http://www.w3.org/1999/xlink" x="0px" y="0px"
	 viewBox="0 0 1080 1080" style="enable-background:new 0 0 1080 1080;" xml:space="preserve">
<polygon points="1015.67,779.17 1015.41,779.62 1012.66,784.44 1011.53,786.39 946.29,900.16 945.36,898.52 945.18,898.21 
	922.93,859.44 922.74,859.1 921.82,857.47 921.63,857.15 921.63,857.13 900.61,820.5 900.55,820.39 899.5,818.55 899.44,818.44 
	881.05,786.39 881,786.28 879.92,784.44 879.86,784.32 850.67,733.39 850.48,733.06 849.54,731.44 849.34,731.11 827.12,692.33 
	826.92,692.02 826.92,692 825.98,690.38 825.79,690.05 808.03,659.08 807.97,658.96 806.92,657.13 806.86,657.01 788.48,624.97 
	788.42,624.85 787.36,623.02 787.31,622.9 754.83,566.29 754.64,565.97 754.64,565.96 753.72,564.34 753.53,564 731.3,525.23 
	731.3,525.21 731.1,524.88 730.17,523.28 729.97,522.94 715.47,497.65 715.41,497.54 714.36,495.7 714.3,495.59 695.92,463.54 
	695.86,463.43 694.79,461.59 694.73,461.47 659.02,399.18 695.12,336.23 695.18,336.11 696.25,334.28 696.31,334.16 714.69,302.1 
	714.75,301.98 715.82,300.15 715.88,300.03 728.14,278.64 728.39,278.19 740.92,300.03 740.98,300.15 742.03,301.98 742.09,302.1 
	760.47,334.16 760.53,334.28 761.61,336.11 761.66,336.23 799.37,401.95 799.37,401.97 799.54,402.29 800.48,403.91 800.67,404.24 
	822.9,443.01 823.1,443.34 824.01,444.98 824.21,445.32 833.48,461.47 833.54,461.59 834.61,463.43 834.67,463.54 853.05,495.59 
	853.11,495.7 854.16,497.54 854.22,497.65 895.16,569.06 895.36,569.39 896.32,571.01 896.32,571.03 896.49,571.34 918.72,610.12 
	918.72,610.14 918.91,610.45 919.85,612.09 920.04,612.4 920.04,612.42 926.06,622.9 926.11,623.02 927.17,624.85 927.23,624.97 
	945.61,657.01 945.67,657.13 946.72,658.96 946.78,659.08 991,736.16 991.2,736.49 992.13,738.11 992.31,738.45 1014.53,777.22 
	1014.73,777.55 "/>
<polygon points="920.68,941.56 918.26,945.77 784.35,945.77 756.6,897.42 756.6,897.4 755.49,895.45 733.07,856.34 731.94,854.39 
	712.44,820.39 711.33,818.44 692.89,786.28 691.78,784.33 660.79,730.29 659.67,728.34 659.67,728.32 637.23,689.23 636.12,687.28 
	619.88,658.97 618.77,657.01 600.33,624.85 599.22,622.9 564.97,563.19 563.86,561.24 541.42,522.13 540.3,520.16 539.17,522.13 
	516.75,561.24 515.62,563.19 515.62,563.21 481.39,622.9 480.28,624.85 461.83,657.01 460.7,658.97 444.47,687.26 444.47,687.28 
	443.35,689.23 420.93,728.34 419.8,730.29 388.83,784.33 250.08,784.33 254.61,776.43 255.74,774.45 278.16,735.37 279.28,733.41 
	279.28,733.4 321.97,658.97 323.09,657.01 341.53,624.85 342.64,622.9 350.43,609.32 351.56,607.37 373.98,568.24 375.11,566.29 
	414.53,497.54 415.64,495.59 434.09,463.43 435.22,461.48 446.26,442.22 447.37,440.27 447.37,440.25 469.8,401.16 470.93,399.19 
	507.11,336.12 508.22,334.16 526.66,301.98 527.79,300.03 540.3,278.22 541.44,276.24 563.86,237.14 564.97,235.21 599.67,174.67 
	600.8,172.72 634.34,114.19 667.91,172.72 669.02,174.67 703.72,235.19 666.52,300.03 665.41,301.98 646.95,334.16 645.84,336.12 
	634.34,356.18 633.21,358.13 610.79,397.22 610.79,397.24 609.68,399.19 610.79,401.14 633.23,440.25 634.34,442.22 645.39,461.48 
	646.52,463.43 664.96,495.59 666.08,497.54 705.5,566.29 706.61,568.24 729.05,607.35 730.16,609.32 737.97,622.9 739.08,624.85 
	757.52,657.01 758.63,658.97 801.31,733.4 802.44,735.35 824.87,774.45 826,776.41 826,776.43 830.53,784.33 831.64,786.28 
	850.08,818.44 851.21,820.39 897.15,900.5 898.26,902.45 "/>
<polygon points="735.03,945.77 159.58,945.77 158.35,943.64 157.24,941.69 134.81,902.58 133.68,900.61 87.74,820.5 86.63,818.55 
	68.19,786.39 67.06,784.44 64.5,779.97 64.76,779.52 64.76,779.5 65.61,778 65.87,777.55 65.87,777.53 88.04,738.87 88.29,738.45 
	89.17,736.94 89.42,736.49 133.82,659.08 133.88,658.96 134.93,657.13 134.99,657.01 153.37,624.97 153.43,624.85 154.5,623.02 
	154.56,622.9 160.32,612.87 160.57,612.42 161.43,610.9 161.68,610.45 183.85,571.79 184.11,571.34 184.99,569.82 185.24,569.39 
	226.38,497.65 226.43,497.54 227.51,495.7 227.57,495.59 245.95,463.54 246.01,463.43 247.06,461.59 247.12,461.47 256.14,445.74 
	256.39,445.3 257.25,443.77 257.5,443.34 279.69,404.69 279.94,404.24 280.8,402.72 281.06,402.29 318.95,336.23 319.01,336.11 
	320.07,334.28 320.12,334.16 338.53,302.1 338.59,301.98 339.64,300.15 339.7,300.03 351.95,278.64 352.21,278.21 353.08,276.69 
	353.34,276.24 375.51,237.58 375.76,237.13 376.64,235.63 376.89,235.18 411.53,174.78 411.59,174.67 412.64,172.83 412.7,172.72 
	446.01,114.66 446.27,114.19 447.13,112.67 447.38,112.24 469.55,73.58 469.8,73.13 470.68,71.63 470.93,71.18 471.13,70.83 
	609.49,70.83 609.68,71.16 609.43,71.61 551.45,172.72 551.39,172.83 550.34,174.67 550.28,174.78 540.31,192.15 540.06,192.6 
	539.18,194.1 538.92,194.55 516.75,233.21 516.5,233.66 515.64,235.18 515.39,235.63 478.45,300.03 478.39,300.15 477.32,301.98 
	477.26,302.1 458.87,334.16 458.82,334.28 457.76,336.11 457.7,336.23 446.27,356.15 446.01,356.6 445.14,358.12 444.88,358.57 
	422.71,397.21 422.46,397.66 421.58,399.18 421.33,399.61 385.87,461.47 385.81,461.59 384.74,463.43 384.68,463.54 366.3,495.59 
	366.24,495.7 365.18,497.54 365.13,497.65 350.43,523.26 350.18,523.71 349.32,525.21 349.06,525.66 326.88,564.34 326.62,564.77 
	325.76,566.29 325.51,566.74 293.29,622.9 293.23,623.02 292.18,624.85 292.12,624.97 273.74,657.01 273.68,657.13 272.63,658.96 
	272.57,659.08 254.61,690.36 254.36,690.81 253.48,692.33 253.23,692.78 231.06,731.42 230.81,731.87 229.95,733.39 229.69,733.84 
	200.73,784.32 200.68,784.44 199.6,786.28 199.54,786.39 181.16,818.44 181.1,818.55 180.05,820.39 663.11,820.39 663.17,820.5 
	707.08,897.06 707.28,897.39 708.21,899.03 708.41,899.36 730.64,938.12 730.83,938.45 731.77,940.09 731.94,940.42 "/>
<polygon points="642.64,783.16 438.34,783.16 444.67,772.13 445.8,770.18 468.22,731.07 469.33,729.1 510.24,657.79 511.35,655.84 
	529.81,623.66 530.92,621.71 540.5,605.03 550.07,621.71 551.18,623.66 569.64,655.84 570.75,657.79 611.65,729.1 612.77,731.07 
	635.19,770.18 636.32,772.13 "/>
</svg>
